<svg id="svg" version="1.1" xmlns="http://www.w3.org/2000/svg" xmlns:xlink="http://www.w3.org/1999/xlink" width="600" height="600" viewBox="-100, -100, 600, 600"><g id="svgg"><path id="path0" d="M145.392 46.594 C 118.466 50.762,100.929 77.679,106.592 106.148 C 115.709 151.983,163.491 168.605,186.170 133.831 C 193.535 122.537,195.755 110.590,194.287 90.149 C 192.342 63.075,169.629 42.843,145.392 46.594 M158.755 48.017 C 173.386 50.971,185.308 61.491,190.935 76.413 C 195.679 88.994,195.255 112.606,190.058 125.189 C 172.038 168.825,115.990 155.745,107.279 105.871 C 101.240 71.293,127.555 41.718,158.755 48.017 M236.594 47.917 C 219.664 52.386,208.309 63.585,203.253 80.796 C 199.276 94.337,200.846 116.326,206.572 127.267 C 221.441 155.680,250.584 160.500,273.714 138.372 C 289.605 123.169,294.786 92.023,284.781 71.841 C 275.716 53.553,254.723 43.130,236.594 47.917 M254.955 48.768 C 284.967 56.264,297.482 88.488,283.636 122.621 C 272.834 149.251,239.547 160.182,220.012 143.515 C 209.560 134.596,203.538 123.303,202.173 110.063 C 198.818 77.496,211.316 55.220,236.617 48.673 C 242.209 47.226,248.920 47.260,254.955 48.768 M146.457 59.327 C 125.693 62.386,114.229 86.750,122.029 111.244 C 131.809 141.959,167.837 147.767,178.189 120.298 C 181.532 111.427,181.310 88.781,177.796 80.132 C 172.306 66.620,158.621 57.535,146.457 59.327 M241.791 59.924 C 241.353 60.025,240.010 60.303,238.806 60.542 C 230.858 62.119,221.793 70.154,218.319 78.702 C 215.231 86.304,214.694 108.261,217.361 117.887 C 221.387 132.414,237.562 141.333,251.456 136.687 C 260.711 133.593,269.084 125.456,271.493 117.214 C 271.941 115.682,272.853 112.905,273.520 111.045 C 276.070 103.928,275.327 87.188,272.108 79.218 C 267.223 67.125,252.161 57.539,241.791 59.924 M143.350 63.867 C 148.108 67.101,147.862 72.523,142.665 78.960 C 141.448 80.468,139.848 82.902,139.109 84.370 C 137.267 88.027,136.374 88.561,132.139 88.541 C 123.900 88.500,122.210 86.331,124.446 78.665 C 127.213 69.180,138.344 60.466,143.350 63.867 M236.714 65.246 C 240.784 68.194,240.742 71.189,236.549 77.111 C 235.582 78.477,233.932 81.433,232.883 83.679 C 229.488 90.950,224.270 92.888,219.459 88.665 C 214.951 84.707,221.613 70.707,230.448 65.572 C 233.542 63.774,234.606 63.719,236.714 65.246 M131.640 100.127 C 136.235 103.138,134.047 110.033,128.517 109.966 C 121.063 109.877,120.286 101.259,127.562 99.375 C 128.711 99.078,130.559 99.418,131.640 100.127 M76.020 118.854 C 41.026 125.661,27.619 169.076,51.316 198.848 C 77.622 231.897,126.139 212.391,123.194 169.950 C 121.787 149.685,118.799 141.250,109.686 131.817 C 101.087 122.917,85.663 116.978,76.020 118.854 M311.003 119.220 C 297.101 122.272,285.727 131.158,279.983 143.456 C 263.005 179.802,281.630 216.885,316.219 215.607 C 350.296 214.347,370.549 164.042,348.669 135.006 C 339.529 122.876,323.999 116.368,311.003 119.220 M88.756 120.566 C 106.293 124.497,118.331 138.375,121.407 158.209 C 124.969 181.179,119.939 197.406,106.070 207.686 C 83.123 224.693,51.184 211.037,42.432 180.477 C 32.633 146.259,57.854 113.640,88.756 120.566 M324.776 120.172 C 345.648 124.811,359.005 144.739,357.013 168.268 C 354.417 198.936,330.036 220.468,305.075 214.137 C 277.051 207.030,265.943 175.079,280.536 143.558 C 288.364 126.650,307.769 116.392,324.776 120.172 M74.730 132.377 C 60.755 136.675,52.131 151.563,53.542 168.955 C 56.467 204.992,101.280 213.623,108.452 179.530 C 113.534 155.371,93.058 126.741,74.730 132.377 M312.239 132.509 C 307.725 133.598,298.077 141.376,294.522 146.791 C 283.773 163.164,285.360 184.222,298.102 194.318 C 318.016 210.096,341.502 196.389,342.961 168.137 C 344.090 146.293,328.764 128.521,312.239 132.509 M75.677 136.943 C 79.660 138.975,79.252 142.901,74.358 149.652 C 73.008 151.512,71.035 154.502,69.972 156.296 C 66.416 162.297,62.139 164.453,58.014 162.324 C 53.980 160.241,56.797 147.456,62.630 141.378 C 67.532 136.268,71.626 134.877,75.677 136.943 M309.294 139.010 C 312.996 141.476,312.667 143.514,307.264 151.603 C 301.113 160.810,297.931 162.415,293.395 158.598 C 287.547 153.677,302.906 134.755,309.294 139.010 M190.249 157.625 C 176.142 159.356,160.390 166.264,150.675 174.980 C 131.846 191.871,109.401 219.788,100.799 237.015 C 92.848 252.939,92.626 278.135,100.305 293.345 C 104.823 302.296,111.856 311.102,118.209 315.762 C 119.632 316.805,120.095 317.066,119.239 316.342 C 112.375 310.538,110.338 308.304,106.058 301.891 C 97.029 288.362,94.043 276.619,95.488 260.332 C 96.786 245.704,99.570 238.331,109.255 223.881 C 117.384 211.751,119.218 209.417,133.777 192.678 C 154.859 168.440,172.920 158.699,197.859 158.114 C 226.730 157.437,247.811 170.244,273.433 204.024 C 274.637 205.611,278.090 210.149,281.107 214.108 C 292.532 229.099,295.385 234.981,298.791 250.567 C 305.828 282.765,290.120 314.206,261.321 325.570 C 253.311 328.730,249.028 329.068,216.517 329.104 C 203.274 329.119,188.139 329.244,182.886 329.383 C 171.888 329.674,152.088 329.005,146.301 328.148 C 141.797 327.481,140.675 327.628,144.754 328.351 C 153.009 329.814,172.347 330.153,216.517 329.611 C 256.140 329.124,255.443 329.207,266.866 323.578 C 296.789 308.830,308.529 273.494,295.663 236.900 C 292.865 228.942,287.130 220.391,270.112 198.806 C 244.855 166.770,220.033 153.971,190.249 157.625 M190.758 171.968 C 170.135 173.554,157.490 182.804,130.949 215.721 C 108.824 243.161,106.003 250.205,108.404 272.040 C 110.865 294.434,125.451 310.682,146.668 314.664 C 150.440 315.371,151.557 315.377,230.448 315.086 C 254.475 314.998,253.616 315.081,259.765 312.245 C 283.596 301.254,293.543 270.169,281.608 243.980 C 280.461 241.463,279.293 238.687,279.012 237.811 C 276.633 230.383,264.183 213.327,248.823 196.451 C 231.311 177.212,214.538 170.140,190.758 171.968 M192.118 174.129 C 192.627 174.486,193.126 175.458,193.357 176.541 C 194.247 180.713,192.967 181.791,184.631 183.887 C 175.552 186.170,166.964 190.342,160.199 195.756 C 153.273 201.299,142.240 212.452,137.299 218.905 C 135.037 221.861,131.753 226.070,130.003 228.259 C 121.384 239.036,118.150 245.584,114.573 259.502 C 111.330 272.121,108.583 272.758,108.561 260.896 C 108.536 246.552,112.257 239.830,136.652 210.151 C 142.271 203.316,154.794 189.948,159.122 186.166 C 169.193 177.367,187.306 170.759,192.118 174.129 M229.233 210.795 C 243.925 214.522,252.360 229.261,249.783 246.703 C 248.609 254.651,247.120 257.475,240.470 264.370 C 238.091 266.837,235.176 269.925,233.993 271.233 C 222.449 283.983,205.970 299.763,202.179 301.697 C 199.435 303.097,196.915 303.188,195.053 301.956 C 186.562 296.337,160.672 271.543,151.761 260.498 C 141.925 248.304,142.592 229.919,153.268 218.918 C 164.747 207.090,185.797 207.629,195.529 220.000 C 197.897 223.011,198.502 223.081,200.354 220.558 C 206.739 211.859,218.183 207.991,229.233 210.795 M207.960 237.658 C 207.303 237.864,201.884 238.105,195.916 238.193 C 181.192 238.411,178.929 239.002,177.878 242.907 C 176.597 247.666,178.283 249.901,183.791 250.747 C 188.558 251.479,188.598 251.497,189.609 253.266 C 194.319 261.512,190.954 267.861,181.874 267.861 C 177.613 267.861,176.664 269.041,178.122 272.529 C 181.291 280.113,188.229 280.388,195.175 273.203 C 197.103 271.209,198.703 269.863,198.959 270.021 C 199.202 270.172,200.326 271.272,201.456 272.467 C 206.766 278.082,213.787 278.945,217.025 274.380 C 219.824 270.433,218.650 268.140,213.358 267.221 C 204.535 265.690,202.183 262.125,205.615 255.481 C 207.946 250.969,208.558 250.489,212.450 250.131 C 215.344 249.865,215.608 249.759,217.000 248.307 C 222.651 242.408,216.374 235.014,207.960 237.658 M215.070 238.559 C 220.721 240.920,218.525 248.811,212.049 249.416 C 208.157 249.779,207.369 250.419,205.009 255.134 C 201.235 262.673,204.018 267.055,213.371 268.301 C 217.752 268.885,218.768 270.670,216.518 273.830 C 214.326 276.908,210.910 277.205,207.363 274.627 C 206.159 273.751,204.279 272.430,203.184 271.690 C 202.090 270.950,200.853 269.964,200.436 269.500 C 199.200 268.125,198.509 268.469,194.550 272.428 C 187.291 279.687,181.437 279.645,178.694 272.312 C 177.406 268.871,178.069 268.127,182.058 268.539 C 187.571 269.108,193.494 264.448,192.886 260.019 C 192.134 254.528,189.331 251.027,185.154 250.359 C 179.649 249.478,178.706 248.684,178.706 244.929 C 178.706 239.673,180.187 239.154,196.077 238.847 C 202.905 238.715,208.626 238.473,208.790 238.308 C 209.294 237.803,213.681 237.978,215.070 238.559 M43.022 262.961 C 24.249 263.057,17.640 263.212,17.215 263.565 C 16.256 264.360,16.743 291.423,17.842 298.400 C 25.307 345.808,63.495 380.571,110.647 382.883 C 123.968 383.536,294.350 383.594,298.308 382.947 C 335.827 376.814,364.955 353.860,377.920 320.210 C 383.038 306.928,384.474 297.410,384.476 276.765 C 384.478 263.497,384.531 263.843,382.404 263.335 C 380.321 262.838,319.292 262.914,318.688 263.415 C 318.286 263.749,318.059 265.443,317.865 269.550 C 316.778 292.605,309.398 308.908,292.678 325.195 C 282.856 334.763,270.962 341.512,259.627 343.950 L 255.323 344.876 199.602 344.858 L 143.881 344.841 139.104 343.951 C 105.328 337.663,77.219 302.732,77.214 267.041 C 77.214 262.316,80.986 262.766,43.022 262.961 M346.078 303.928 C 357.525 309.488,360.335 321.150,352.250 329.540 C 344.676 337.400,330.552 333.970,325.130 322.955 C 319.576 311.673,334.366 298.239,346.078 303.928 M122.189 318.744 C 123.546 319.919,129.055 323.191,129.652 323.177 C 129.816 323.173,128.697 322.446,127.164 321.561 C 125.632 320.677,123.572 319.410,122.587 318.746 L 120.796 317.538 122.189 318.744 M131.343 323.950 C 133.356 325.005,140.337 327.564,141.177 327.554 C 141.569 327.549,140.368 327.030,138.507 326.399 C 136.647 325.769,134.072 324.788,132.786 324.219 C 130.093 323.027,129.303 322.880,131.343 323.950 " stroke="none" fill="#1ac2aa" fill-rule="evenodd"></path><path id="path1" d="M146.070 47.389 C 116.472 50.951,99.050 82.914,109.528 114.428 C 123.304 155.861,166.866 165.241,187.164 131.144 C 196.091 116.147,196.808 87.445,188.659 71.239 C 180.540 55.091,163.122 45.337,146.070 47.389 M241.990 47.764 C 214.484 50.441,198.592 75.307,202.173 110.063 C 204.558 133.207,221.997 151.419,241.791 151.438 C 269.453 151.463,290.375 125.664,289.235 92.935 C 288.292 65.850,266.846 45.345,241.990 47.764 M154.229 59.501 C 166.120 61.982,176.977 73.236,179.355 85.547 C 180.151 89.672,180.782 107.379,180.298 112.046 C 177.934 134.842,156.244 145.018,137.100 132.311 C 116.526 118.655,113.454 80.241,131.801 66.048 C 139.257 60.280,147.054 58.004,154.229 59.501 M251.343 60.693 C 260.360 63.051,268.517 70.328,272.108 79.218 C 275.327 87.188,276.070 103.928,273.520 111.045 C 272.853 112.905,271.941 115.682,271.493 117.214 C 269.084 125.456,260.711 133.593,251.456 136.687 C 237.562 141.333,221.387 132.414,217.361 117.887 C 214.694 108.261,215.231 86.304,218.319 78.702 C 221.793 70.154,230.858 62.119,238.806 60.542 C 240.010 60.303,241.353 60.025,241.791 59.924 C 243.217 59.596,248.898 60.053,251.343 60.693 M74.030 120.156 C 41.871 127.308,29.403 169.005,50.912 197.473 C 71.447 224.651,109.722 219.463,119.993 188.109 C 125.172 172.300,122.456 150.683,113.609 137.295 C 105.445 124.939,87.487 117.163,74.030 120.156 M310.448 120.021 C 297.283 122.844,286.025 131.703,280.536 143.558 C 267.102 172.576,275.537 202.902,299.701 212.463 C 334.448 226.211,367.718 185.524,354.053 145.997 C 347.887 128.162,327.929 116.272,310.448 120.021 M82.831 132.135 C 91.966 133.814,101.370 142.837,105.718 154.096 C 118.367 186.848,93.996 213.289,67.641 195.407 C 55.740 187.332,50.719 170.362,55.110 153.052 C 58.427 139.977,71.564 130.065,82.831 132.135 M321.807 132.757 C 347.479 139.440,350.916 184.674,326.760 197.949 C 310.461 206.905,290.166 194.922,287.756 174.918 C 285.692 157.785,294.315 141.698,310.050 133.326 C 312.468 132.040,318.019 131.771,321.807 132.757 M191.045 158.274 C 190.498 158.360,188.259 158.711,186.070 159.055 C 177.041 160.473,163.601 165.989,156.020 171.390 C 152.123 174.166,138.727 186.987,133.777 192.678 C 119.218 209.417,117.384 211.751,109.255 223.881 C 98.039 240.616,94.402 252.782,95.254 270.711 C 96.724 301.653,121.346 326.563,152.637 328.764 C 162.992 329.493,234.968 329.453,246.160 328.713 C 282.285 326.324,307.247 289.260,298.791 250.567 C 295.385 234.981,292.532 229.099,281.107 214.108 C 278.090 210.149,274.637 205.611,273.433 204.024 C 252.001 175.768,233.029 161.975,210.945 158.594 C 207.473 158.062,193.801 157.843,191.045 158.274 M204.577 171.946 C 220.789 173.354,234.925 181.183,248.823 196.451 C 264.183 213.327,276.633 230.383,279.012 237.811 C 279.293 238.687,280.461 241.463,281.608 243.980 C 294.538 272.354,281.540 306.098,254.527 314.283 C 251.924 315.072,254.947 315.033,179.502 315.251 C 144.761 315.351,143.115 315.172,133.249 310.208 C 110.612 298.816,100.836 266.146,112.658 241.388 C 119.178 227.733,151.887 189.363,164.142 180.994 C 174.661 173.810,189.025 170.596,204.577 171.946 M208.790 238.308 C 208.626 238.473,202.905 238.715,196.077 238.847 C 180.187 239.154,178.706 239.673,178.706 244.929 C 178.706 248.684,179.649 249.478,185.154 250.359 C 189.331 251.027,192.134 254.528,192.886 260.019 C 193.494 264.448,187.571 269.108,182.058 268.539 C 178.069 268.127,177.406 268.871,178.694 272.312 C 181.437 279.645,187.291 279.687,194.550 272.428 C 198.509 268.469,199.200 268.125,200.436 269.500 C 200.853 269.964,202.090 270.950,203.184 271.690 C 204.279 272.430,206.159 273.751,207.363 274.627 C 210.910 277.205,214.326 276.908,216.518 273.830 C 218.768 270.670,217.752 268.885,213.371 268.301 C 204.018 267.055,201.235 262.673,205.009 255.134 C 207.369 250.419,208.157 249.779,212.049 249.416 C 218.525 248.811,220.721 240.920,215.070 238.559 C 213.681 237.978,209.294 237.803,208.790 238.308 " stroke="none" fill="#064747" fill-rule="evenodd"></path><path id="path2" d="M77.811 2.360 C 71.413 4.535,57.313 11.071,57.313 11.863 C 57.313 12.036,56.684 12.406,55.914 12.684 C 55.145 12.963,54.617 13.355,54.741 13.556 C 54.865 13.757,54.690 13.815,54.352 13.685 C 53.990 13.547,53.637 13.712,53.493 14.088 C 53.358 14.439,52.999 14.726,52.694 14.726 C 52.389 14.726,52.139 14.916,52.139 15.148 C 52.139 15.380,51.959 15.458,51.738 15.322 C 51.518 15.185,51.230 15.354,51.099 15.696 C 50.968 16.038,50.675 16.318,50.450 16.318 C 49.709 16.318,42.232 21.583,38.578 24.677 C 35.484 27.296,23.121 39.601,23.003 40.178 C 22.939 40.495,22.391 41.185,21.786 41.711 C 21.181 42.236,20.031 43.678,19.230 44.915 C 18.428 46.152,17.337 47.642,16.803 48.226 C 16.224 48.860,15.956 49.487,16.137 49.780 C 16.311 50.061,16.277 50.171,16.059 50.036 C 15.682 49.803,13.771 52.415,12.050 55.519 C 9.954 59.298,6.372 66.485,6.447 66.762 C 6.491 66.929,6.038 68.011,5.439 69.168 C 4.368 71.238,1.659 78.978,0.561 83.104 C 0.085 84.895,-0.001 102.078,-0.004 196.935 L -0.008 308.657 0.821 312.239 C 2.360 318.887,3.293 321.679,5.675 326.766 C 6.136 327.751,6.479 328.697,6.437 328.867 C 6.395 329.038,6.720 329.922,7.160 330.832 C 7.600 331.743,7.960 332.710,7.960 332.982 C 7.960 333.253,8.242 333.757,8.586 334.101 C 8.930 334.445,9.097 334.726,8.957 334.726 C 8.817 334.726,9.040 335.219,9.454 335.821 C 9.867 336.423,10.702 337.990,11.308 339.303 C 12.321 341.497,13.559 343.433,18.561 350.647 C 19.547 352.070,21.391 354.308,22.658 355.622 C 23.925 356.935,25.000 358.189,25.046 358.408 C 25.092 358.627,26.006 359.724,27.076 360.845 C 28.147 361.967,28.935 362.972,28.827 363.080 C 28.720 363.187,29.085 363.572,29.639 363.935 C 30.193 364.298,30.647 364.521,30.647 364.430 C 30.647 364.339,31.919 365.576,33.473 367.179 C 35.395 369.161,36.498 370.017,36.921 369.855 C 37.332 369.697,37.446 369.775,37.256 370.082 C 36.994 370.505,37.483 370.733,38.338 370.585 C 38.518 370.553,38.569 370.685,38.450 370.878 C 38.152 371.359,39.978 373.016,40.392 372.640 C 40.575 372.474,40.610 372.539,40.471 372.784 C 40.041 373.537,44.639 377.579,46.590 378.163 C 47.552 378.451,48.630 378.960,48.985 379.294 C 50.238 380.470,51.343 381.283,51.343 381.029 C 51.343 380.887,51.752 381.247,52.251 381.829 C 52.751 382.410,53.356 382.886,53.596 382.886 C 53.836 382.886,54.266 383.168,54.553 383.514 C 55.079 384.148,58.905 386.242,58.905 385.896 C 58.905 385.794,59.379 386.149,59.959 386.686 C 60.538 387.222,61.333 387.662,61.726 387.662 C 62.119 387.662,62.553 387.844,62.691 388.066 C 62.828 388.289,63.107 388.368,63.311 388.242 C 63.515 388.116,63.682 388.163,63.682 388.346 C 63.682 388.888,69.195 391.327,69.705 391.012 C 70.019 390.818,70.066 390.896,69.847 391.250 C 69.608 391.636,69.704 391.707,70.204 391.515 C 70.580 391.371,70.789 391.411,70.670 391.604 C 70.551 391.797,70.945 392.077,71.545 392.227 C 72.146 392.377,72.942 392.775,73.315 393.111 C 73.688 393.447,74.509 393.762,75.140 393.812 C 75.771 393.861,76.451 393.996,76.651 394.112 C 77.828 394.791,81.312 395.639,82.575 395.554 C 83.628 395.483,84.163 395.650,84.434 396.133 C 84.763 396.721,87.586 397.537,88.458 397.296 C 88.622 397.251,88.756 397.393,88.756 397.612 C 88.756 398.380,314.261 398.138,317.281 397.367 C 318.667 397.013,319.891 396.610,320.000 396.471 C 320.109 396.332,320.423 396.201,320.697 396.179 C 322.232 396.056,322.412 395.983,322.163 395.579 C 321.982 395.286,322.160 395.224,322.694 395.394 C 323.160 395.542,323.727 395.420,324.041 395.106 C 324.340 394.807,324.831 394.645,325.134 394.746 C 325.499 394.868,325.577 394.758,325.367 394.418 C 325.179 394.113,325.210 394.005,325.445 394.150 C 326.034 394.514,328.766 393.571,328.477 393.104 C 328.326 392.860,328.494 392.803,328.903 392.960 C 329.747 393.284,347.736 384.421,348.791 383.162 C 349.193 382.681,349.382 382.557,349.212 382.886 C 348.822 383.637,350.019 382.800,351.179 381.510 C 351.581 381.062,351.770 380.965,351.600 381.294 C 351.210 382.045,352.407 381.208,353.567 379.918 C 353.969 379.470,354.171 379.347,354.015 379.643 C 353.569 380.495,355.690 378.981,356.647 377.765 C 357.101 377.188,357.337 376.976,357.172 377.292 C 356.999 377.622,357.425 377.474,358.169 376.944 C 358.882 376.436,359.560 375.775,359.675 375.475 C 359.790 375.175,360.056 375.036,360.265 375.165 C 360.475 375.295,361.389 374.622,362.296 373.671 C 363.203 372.719,363.787 372.199,363.593 372.516 C 362.176 374.826,375.066 362.113,377.695 358.607 C 378.434 357.622,379.233 356.558,379.470 356.242 C 379.809 355.790,379.773 355.733,379.303 355.973 C 378.975 356.141,379.178 355.907,379.755 355.453 C 380.971 354.496,382.485 352.375,381.633 352.821 C 381.337 352.977,381.460 352.775,381.908 352.373 C 383.154 351.253,384.055 349.992,383.284 350.450 C 382.955 350.644,383.277 350.209,383.998 349.483 C 384.719 348.756,385.215 348.067,385.099 347.951 C 384.983 347.835,385.199 347.486,385.578 347.174 C 386.039 346.796,386.070 346.693,385.672 346.866 C 385.203 347.068,385.212 347.010,385.713 346.595 C 386.534 345.916,388.099 342.859,387.787 342.546 C 387.655 342.415,387.851 342.191,388.222 342.049 C 388.972 341.761,391.747 336.556,391.358 336.167 C 391.222 336.031,391.331 335.920,391.599 335.920 C 391.867 335.920,391.976 335.741,391.841 335.522 C 391.706 335.303,391.829 335.122,392.116 335.118 C 392.500 335.114,392.483 335.015,392.051 334.742 C 391.549 334.424,391.563 334.334,392.148 334.109 C 392.524 333.965,392.731 333.685,392.609 333.488 C 392.487 333.290,392.669 332.847,393.013 332.502 C 393.357 332.158,393.537 331.711,393.413 331.510 C 393.289 331.309,393.371 331.144,393.596 331.144 C 393.821 331.144,393.902 330.876,393.776 330.547 C 393.650 330.219,393.739 329.950,393.975 329.950 C 394.210 329.950,394.300 329.682,394.174 329.353 C 394.048 329.025,394.131 328.756,394.358 328.756 C 394.738 328.756,395.463 327.170,395.248 326.811 C 395.197 326.726,395.306 326.547,395.488 326.413 C 395.908 326.105,396.897 323.601,396.948 322.716 C 396.969 322.349,397.143 322.145,397.334 322.263 C 397.524 322.381,397.629 322.054,397.567 321.537 C 397.504 321.020,397.667 320.207,397.929 319.730 C 398.191 319.254,398.297 318.582,398.165 318.238 C 398.028 317.880,398.132 317.612,398.408 317.612 C 398.681 317.612,398.788 317.343,398.654 316.994 C 398.506 316.607,398.580 316.477,398.853 316.646 C 399.144 316.826,399.200 316.634,399.021 316.070 C 398.865 315.579,398.925 315.224,399.165 315.224 C 399.391 315.224,399.463 314.926,399.323 314.562 C 399.153 314.118,399.222 313.994,399.532 314.185 C 399.883 314.403,399.996 286.977,399.999 200.245 C 400.003 78.486,400.085 84.039,398.223 80.306 C 397.887 79.633,397.612 78.742,397.612 78.327 C 397.612 77.912,397.331 77.030,396.988 76.366 C 396.645 75.703,396.030 74.114,395.622 72.836 C 395.214 71.558,394.562 69.915,394.175 69.186 C 393.787 68.457,393.514 67.637,393.568 67.363 C 393.622 67.090,393.510 66.866,393.318 66.866 C 393.126 66.866,392.968 66.630,392.968 66.341 C 392.968 65.566,389.148 58.109,388.751 58.109 C 388.564 58.109,388.514 57.943,388.640 57.739 C 388.766 57.535,388.684 57.254,388.458 57.115 C 388.232 56.975,387.779 56.218,387.451 55.433 C 386.932 54.190,383.304 48.630,379.707 43.563 C 379.077 42.677,377.700 41.132,376.645 40.130 C 375.590 39.127,374.674 38.061,374.610 37.761 C 374.421 36.880,361.709 24.737,358.108 21.998 C 354.603 19.332,349.331 15.949,349.000 16.153 C 348.811 16.270,348.657 16.176,348.657 15.944 C 348.657 15.712,348.388 15.522,348.060 15.522 C 347.731 15.522,347.463 15.346,347.463 15.131 C 347.463 14.632,343.662 12.689,343.332 13.020 C 343.196 13.156,343.085 13.073,343.085 12.835 C 343.085 12.192,340.386 10.645,339.846 10.979 C 339.571 11.149,339.485 11.096,339.638 10.849 C 339.868 10.476,338.966 9.839,338.520 10.061 C 338.423 10.109,338.111 9.860,337.828 9.507 C 337.142 8.651,330.063 5.854,329.485 6.211 C 329.185 6.396,329.142 6.312,329.357 5.964 C 329.596 5.578,329.500 5.507,329.000 5.699 C 328.624 5.843,328.415 5.803,328.534 5.609 C 328.814 5.157,327.624 4.691,327.067 5.035 C 326.834 5.179,326.750 5.125,326.880 4.914 C 327.205 4.388,317.221 1.144,313.914 0.701 C 313.337 0.624,312.741 0.436,312.588 0.283 C 312.435 0.130,261.071 0.018,198.444 0.033 L 84.577 0.060 77.811 2.360 M186.468 15.656 C 187.781 15.682,204.617 15.547,223.881 15.355 C 293.270 14.663,305.793 15.688,322.985 23.464 C 356.462 38.607,375.812 62.340,383.359 97.512 L 384.597 103.284 384.882 153.234 C 385.326 231.362,384.761 290.820,383.496 298.905 C 376.544 343.360,343.985 375.480,298.308 382.947 C 294.350 383.594,123.968 383.536,110.647 382.883 C 63.495 380.571,25.303 345.803,17.843 298.400 C 16.818 291.892,16.257 264.714,17.126 263.668 C 17.524 263.188,19.160 263.085,26.384 263.085 C 31.209 263.085,35.069 262.996,34.962 262.889 C 34.854 262.781,30.889 262.671,26.150 262.645 C 19.148 262.605,17.445 262.488,17.055 262.018 C 16.531 261.387,16.477 253.396,16.358 158.408 C 16.289 104.019,16.294 103.838,17.959 95.522 C 26.206 54.350,63.570 20.046,105.075 15.542 C 107.677 15.260,170.936 15.348,186.468 15.656 M146.269 30.120 C 112.729 34.347,90.919 58.461,89.995 92.338 L 89.751 101.294 82.189 101.542 C 53.285 102.492,29.568 122.368,24.065 150.252 C 21.307 164.222,21.937 173.652,26.673 189.316 C 34.068 213.775,56.667 232.040,79.536 232.040 C 82.579 232.040,82.607 232.650,79.946 240.747 L 77.901 246.965 77.554 254.726 C 76.495 278.362,79.230 290.953,89.140 308.060 C 98.928 324.955,120.568 340.500,139.104 343.951 L 143.881 344.841 199.602 344.858 L 255.323 344.876 259.627 343.950 C 273.775 340.907,289.550 330.478,300.365 317.015 C 316.543 296.877,321.415 273.118,315.771 241.882 C 314.041 232.309,313.815 233.019,318.704 232.682 C 344.859 230.881,366.169 209.354,372.331 178.507 C 378.990 145.174,363.464 115.027,334.440 104.932 C 327.632 102.565,324.808 102.143,315.556 102.115 C 311.032 102.101,307.220 101.979,307.084 101.843 C 306.948 101.707,306.783 97.498,306.716 92.490 C 306.583 82.402,306.480 81.834,302.943 71.642 C 292.907 42.721,263.447 25.493,234.084 31.374 C 222.542 33.686,208.138 42.016,201.056 50.475 C 198.421 53.621,197.709 53.472,193.234 48.834 C 179.969 35.088,162.402 28.088,146.269 30.120 M160.441 47.513 C 179.877 52.445,193.221 69.165,194.626 90.348 C 196.060 111.983,193.773 123.173,185.424 135.362 C 159.629 173.025,105.629 145.496,105.715 94.726 C 105.767 63.742,132.728 40.481,160.441 47.513 M249.751 46.963 C 262.121 48.281,273.674 55.180,281.416 65.871 C 298.115 88.931,289.967 130.207,265.754 145.211 C 242.309 159.738,218.026 151.855,205.383 125.614 C 200.162 114.776,199.267 90.875,203.629 78.741 C 210.718 59.021,225.548 47.558,245.174 46.628 C 245.721 46.602,247.781 46.753,249.751 46.963 M138.903 63.257 C 131.348 65.556,124.672 74.127,123.570 82.943 C 123.074 86.918,125.508 88.508,132.139 88.541 C 136.374 88.561,137.267 88.027,139.109 84.370 C 139.848 82.902,141.448 80.468,142.665 78.960 C 145.708 75.191,146.604 73.232,146.638 70.274 C 146.692 65.446,142.929 62.033,138.903 63.257 M332.736 63.821 C 325.998 67.255,324.742 77.604,330.326 83.677 L 332.233 85.750 335.171 85.887 C 339.529 86.089,341.858 84.617,344.072 80.259 C 349.228 70.114,341.728 59.238,332.736 63.821 M230.448 65.572 C 221.613 70.707,214.951 84.707,219.459 88.665 C 224.270 92.888,229.488 90.950,232.883 83.679 C 233.932 81.433,235.582 78.477,236.549 77.111 C 240.742 71.189,240.784 68.194,236.714 65.246 C 234.606 63.719,233.542 63.774,230.448 65.572 M127.562 99.375 C 120.286 101.259,121.063 109.877,128.517 109.966 C 131.883 110.007,134.133 107.763,134.128 104.370 C 134.124 101.358,130.513 98.611,127.562 99.375 M324.004 119.224 C 356.056 125.307,368.644 165.737,348.093 196.595 C 327.741 227.154,283.866 219.924,274.564 184.478 C 271.134 171.409,274.517 151.467,282.410 138.224 C 290.502 124.649,308.725 116.324,324.004 119.224 M85.970 119.215 C 105.399 122.324,118.833 136.626,122.222 157.811 C 126.158 182.415,119.955 200.226,103.934 210.317 C 82.616 223.744,53.653 212.156,43.381 186.090 C 29.759 151.524,53.630 114.041,85.970 119.215 M70.365 136.102 C 66.109 137.434,61.027 142.176,58.829 146.866 C 55.664 153.619,55.279 160.912,58.014 162.324 C 62.139 164.453,66.416 162.297,69.972 156.296 C 71.035 154.502,73.008 151.512,74.358 149.652 C 78.041 144.572,79.247 140.679,77.785 138.591 C 76.505 136.764,72.521 135.428,70.365 136.102 M303.803 139.306 C 297.954 142.229,290.950 152.529,291.991 156.677 C 292.862 160.149,298.887 161.389,301.924 158.723 C 303.762 157.109,311.071 146.160,311.608 144.217 C 312.824 139.813,308.382 137.017,303.803 139.306 M207.761 157.420 C 229.801 158.877,251.056 173.469,273.192 202.339 C 294.053 229.547,295.573 232.290,299.455 249.751 C 307.652 286.620,286.444 322.573,252.728 328.964 C 244.725 330.481,157.872 330.609,146.938 329.120 C 118.635 325.266,95.497 299.484,94.459 270.647 C 93.772 251.563,96.981 240.773,108.489 223.483 C 116.205 211.889,119.800 207.262,130.873 194.670 C 153.836 168.558,170.678 158.636,194.428 157.227 C 199.127 156.948,201.045 156.976,207.761 157.420 M183.218 174.122 C 174.641 175.678,166.426 179.784,159.122 186.166 C 154.794 189.948,142.271 203.316,136.652 210.151 C 112.420 239.631,108.618 246.601,108.679 261.428 C 108.726 272.772,111.385 271.904,114.573 259.502 C 118.150 245.584,121.384 239.036,130.003 228.259 C 131.753 226.070,135.037 221.861,137.299 218.905 C 151.415 200.468,168.263 188.003,184.631 183.887 C 192.967 181.791,194.247 180.713,193.357 176.541 C 192.698 173.449,190.204 172.854,183.218 174.122 M217.711 210.144 C 211.246 210.959,204.372 215.084,200.354 220.558 C 198.502 223.081,197.897 223.011,195.529 220.000 C 185.797 207.629,164.747 207.090,153.268 218.918 C 142.592 229.919,141.925 248.304,151.761 260.498 C 160.672 271.543,186.562 296.337,195.053 301.956 C 196.915 303.188,199.435 303.097,202.179 301.697 C 205.970 299.763,222.449 283.983,233.993 271.233 C 235.176 269.925,238.091 266.837,240.470 264.370 C 247.120 257.475,248.609 254.651,249.783 246.703 C 253.082 224.371,238.321 207.544,217.711 210.144 M216.468 238.371 C 221.676 242.085,219.065 249.594,212.349 250.221 C 208.673 250.564,207.869 251.208,205.672 255.569 C 202.287 262.283,204.535 265.690,213.359 267.221 C 219.506 268.288,220.582 272.073,215.904 276.180 C 212.462 279.202,206.314 277.604,201.403 272.411 C 200.302 271.247,199.202 270.172,198.959 270.021 C 198.703 269.863,197.124 271.187,195.227 273.149 C 188.099 280.523,181.709 280.556,178.247 273.237 C 176.068 268.633,176.880 267.463,182.251 267.463 C 189.391 267.463,193.281 263.395,191.434 257.860 C 189.549 252.213,189.181 251.901,183.085 250.782 C 178.746 249.986,177.080 247.855,177.678 243.868 C 178.424 238.893,180.069 238.368,195.887 238.058 C 202.819 237.922,208.640 237.660,208.823 237.476 C 209.565 236.727,215.065 237.371,216.468 238.371 M337.114 302.899 C 327.430 304.902,321.296 315.167,325.130 322.955 C 332.626 338.182,354.000 336.867,356.998 320.995 C 358.762 311.652,346.917 300.871,337.114 302.899 " stroke="none" fill="#f9f8ee" fill-rule="evenodd"></path><path id="path3" d="M105.075 15.542 C 93.426 16.806,76.974 22.526,66.222 29.049 C 38.040 46.149,21.062 71.397,16.707 102.687 C 16.323 105.444,16.249 153.146,16.500 236.292 C 16.587 265.290,16.188 262.761,20.668 262.699 C 28.796 262.587,76.051 263.057,76.368 263.253 C 77.105 263.708,77.363 261.922,77.629 254.527 L 77.901 246.965 79.946 240.747 C 82.607 232.650,82.579 232.040,79.536 232.040 C 56.667 232.040,34.068 213.775,26.673 189.316 C 21.937 173.652,21.307 164.222,24.065 150.252 C 29.568 122.368,53.285 102.492,82.189 101.542 L 89.751 101.294 89.995 92.338 C 90.707 66.223,102.310 47.508,124.581 36.548 C 149.036 24.514,174.093 28.998,193.234 48.834 C 197.709 53.472,198.421 53.621,201.056 50.475 C 208.138 42.016,222.542 33.686,234.084 31.374 C 263.447 25.493,292.907 42.721,302.943 71.642 C 306.480 81.834,306.583 82.402,306.716 92.490 C 306.783 97.498,306.948 101.707,307.084 101.843 C 307.220 101.979,311.032 102.101,315.556 102.115 C 354.796 102.236,380.625 136.989,372.331 178.507 C 366.169 209.354,344.859 230.881,318.704 232.682 C 313.815 233.019,314.042 232.309,315.769 241.882 C 316.930 248.321,318.003 258.644,318.009 263.432 C 318.010 263.880,318.121 263.886,318.627 263.466 C 319.120 263.057,325.495 262.966,350.285 263.016 C 380.151 263.075,382.922 263.153,383.945 263.955 C 384.208 264.161,384.500 264.167,384.623 263.968 C 385.025 263.316,385.166 203.050,384.881 153.035 L 384.598 103.284 383.359 97.512 C 375.810 62.337,356.462 38.607,322.985 23.464 C 305.793 15.688,293.270 14.663,223.881 15.355 C 204.617 15.547,187.781 15.682,186.468 15.656 C 170.936 15.348,107.677 15.260,105.075 15.542 M244.881 46.853 C 245.486 46.944,246.382 46.942,246.871 46.847 C 247.361 46.753,246.866 46.678,245.771 46.681 C 244.677 46.684,244.276 46.761,244.881 46.853 M214.836 59.626 C 212.750 61.855,209.537 66.143,208.664 67.861 C 207.806 69.552,208.193 69.083,210.474 65.672 C 211.572 64.030,213.485 61.567,214.726 60.199 C 215.967 58.831,216.902 57.711,216.804 57.711 C 216.706 57.711,215.821 58.573,214.836 59.626 M340.206 63.502 C 350.215 67.683,346.007 86.390,335.171 85.887 L 332.233 85.750 330.326 83.677 C 322.104 74.734,329.745 59.131,340.206 63.502 M192.295 78.408 C 192.295 78.736,192.449 79.363,192.637 79.801 C 192.852 80.303,192.979 80.376,192.979 80.000 C 192.979 79.672,192.825 79.045,192.637 78.607 C 192.421 78.105,192.295 78.032,192.295 78.408 M194.363 89.552 C 194.363 91.194,194.433 91.866,194.519 91.045 C 194.605 90.224,194.605 88.881,194.519 88.060 C 194.433 87.239,194.363 87.910,194.363 89.552 M289.852 90.149 C 289.856 91.025,289.938 91.336,290.033 90.841 C 290.128 90.346,290.124 89.630,290.025 89.249 C 289.925 88.869,289.847 89.274,289.852 90.149 M201.118 93.731 C 201.121 95.045,201.195 95.534,201.283 94.819 C 201.372 94.103,201.370 93.029,201.279 92.431 C 201.189 91.833,201.116 92.418,201.118 93.731 M194.794 101.692 C 194.794 106.070,194.852 107.915,194.923 105.792 C 194.995 103.670,194.995 100.088,194.924 97.832 C 194.853 95.577,194.794 97.313,194.794 101.692 M201.030 104.511 C 201.049 106.900,201.202 109.751,201.369 110.846 C 201.542 111.977,201.589 110.174,201.478 106.667 C 201.251 99.498,200.979 98.188,201.030 104.511 M201.831 114.063 C 201.853 114.701,202.023 115.672,202.209 116.219 C 202.437 116.890,202.472 116.566,202.317 115.224 C 202.058 112.985,201.770 112.297,201.831 114.063 M202.616 117.845 C 202.545 119.394,206.469 128.955,207.175 128.955 C 207.285 128.955,206.804 127.836,206.107 126.468 C 205.409 125.100,204.345 122.458,203.742 120.597 C 203.138 118.736,202.632 117.498,202.616 117.845 M300.796 122.414 C 299.756 122.955,298.905 123.487,298.905 123.596 C 298.905 123.774,302.846 121.913,303.250 121.544 C 303.743 121.095,302.448 121.554,300.796 122.414 M283.846 123.599 C 283.179 125.063,283.306 125.375,284.027 124.044 C 284.364 123.423,284.565 122.840,284.474 122.749 C 284.383 122.658,284.100 123.041,283.846 123.599 M191.109 123.997 C 190.443 125.461,190.570 125.773,191.291 124.442 C 191.628 123.821,191.829 123.238,191.738 123.147 C 191.647 123.056,191.364 123.439,191.109 123.997 M296.219 124.987 C 295.070 125.646,294.129 126.279,294.129 126.393 C 294.129 126.610,297.633 124.690,298.289 124.114 C 298.986 123.500,298.324 123.780,296.219 124.987 M113.035 125.128 C 113.035 125.555,114.219 127.761,114.448 127.761 C 114.558 127.761,114.351 127.179,113.989 126.468 C 113.251 125.015,113.035 124.712,113.035 125.128 M282.466 126.771 C 282.102 127.535,281.886 128.159,281.986 128.159 C 282.259 128.159,283.467 125.722,283.285 125.540 C 283.198 125.454,282.830 126.008,282.466 126.771 M289.853 129.300 C 287.297 131.428,284.323 134.931,282.714 137.711 C 281.409 139.966,282.046 139.363,283.851 136.636 C 285.449 134.220,288.418 130.971,290.951 128.864 C 291.933 128.047,292.611 127.375,292.458 127.371 C 292.306 127.367,291.133 128.235,289.853 129.300 M344.279 129.950 C 345.689 131.373,346.932 132.537,347.042 132.537 C 347.151 132.537,346.087 131.373,344.677 129.950 C 343.266 128.527,342.023 127.363,341.914 127.363 C 341.804 127.363,342.868 128.527,344.279 129.950 M109.055 131.144 C 110.906 133.005,112.510 134.527,112.619 134.527 C 112.729 134.527,111.304 133.005,109.453 131.144 C 107.602 129.284,105.998 127.761,105.888 127.761 C 105.779 127.761,107.204 129.284,109.055 131.144 M52.922 130.448 L 50.746 132.736 53.035 130.561 C 54.294 129.364,55.323 128.335,55.323 128.272 C 55.323 127.977,54.943 128.322,52.922 130.448 M279.304 131.843 C 277.231 134.896,273.336 138.991,269.055 142.620 C 267.629 143.828,267.548 143.954,268.657 143.237 C 272.091 141.016,278.068 134.534,281.184 129.652 C 282.765 127.174,281.375 128.795,279.304 131.843 M207.884 130.348 C 208.221 131.005,208.794 131.900,209.158 132.338 C 209.522 132.776,209.417 132.418,208.926 131.542 C 207.841 129.610,207.029 128.679,207.884 130.348 M120.000 135.721 C 120.855 136.597,121.644 137.313,121.754 137.313 C 121.863 137.313,121.253 136.597,120.398 135.721 C 119.543 134.846,118.754 134.129,118.644 134.129 C 118.535 134.129,119.145 134.846,120.000 135.721 M213.539 138.263 C 220.153 146.116,229.897 151.713,237.878 152.245 L 240.597 152.426 237.400 151.895 C 228.834 150.474,222.649 147.120,215.764 140.162 C 213.306 137.678,212.384 136.891,213.539 138.263 M181.095 140.187 C 179.234 142.188,176.637 144.616,175.323 145.582 C 172.419 147.718,172.124 148.016,173.893 147.027 C 176.028 145.833,185.649 136.413,184.611 136.533 C 184.537 136.541,182.955 138.186,181.095 140.187 M352.135 140.364 C 352.958 141.932,353.689 143.158,353.758 143.090 C 353.934 142.916,352.042 139.277,351.272 138.308 C 350.924 137.871,351.312 138.795,352.135 140.364 M125.330 140.983 C 126.291 142.000,127.903 143.396,128.912 144.086 L 130.746 145.340 129.154 144.014 C 128.279 143.284,126.667 141.888,125.572 140.910 L 123.582 139.134 125.330 140.983 M280.378 141.731 C 279.812 142.847,279.416 143.827,279.498 143.909 C 279.579 143.991,280.127 143.077,280.714 141.879 C 281.302 140.682,281.698 139.701,281.594 139.701 C 281.491 139.701,280.944 140.615,280.378 141.731 M278.672 145.490 C 278.005 146.953,278.132 147.266,278.853 145.935 C 279.190 145.314,279.391 144.731,279.300 144.640 C 279.209 144.549,278.926 144.931,278.672 145.490 M132.139 146.241 C 132.139 146.934,142.032 151.300,143.407 151.214 C 143.667 151.198,142.631 150.748,141.105 150.215 C 139.578 149.682,136.936 148.534,135.234 147.664 C 133.532 146.794,132.139 146.154,132.139 146.241 M259.900 148.060 C 259.134 148.479,258.687 148.822,258.905 148.822 C 259.124 148.822,259.930 148.479,260.697 148.060 C 261.463 147.640,261.910 147.297,261.692 147.297 C 261.473 147.297,260.667 147.640,259.900 148.060 M276.458 151.701 C 274.794 157.049,273.833 161.011,273.866 162.388 C 273.879 162.935,274.234 161.784,274.655 159.831 C 275.076 157.877,276.039 154.301,276.795 151.884 C 277.551 149.467,278.101 147.421,278.016 147.337 C 277.932 147.252,277.231 149.216,276.458 151.701 M144.772 151.653 C 145.263 151.850,146.606 152.104,147.757 152.218 C 149.820 152.421,149.812 152.416,147.264 151.858 C 144.283 151.207,143.503 151.142,144.772 151.653 M161.194 151.642 C 160.394 151.898,160.355 151.963,160.995 151.972 C 161.433 151.979,162.149 151.830,162.587 151.642 C 163.601 151.206,162.555 151.206,161.194 151.642 M243.881 152.321 C 244.373 152.416,245.179 152.416,245.672 152.321 C 246.164 152.226,245.761 152.148,244.776 152.148 C 243.791 152.148,243.388 152.226,243.881 152.321 M151.954 152.732 C 153.110 152.812,154.901 152.812,155.934 152.730 C 156.966 152.648,156.020 152.582,153.831 152.583 C 151.642 152.584,150.797 152.651,151.954 152.732 M206.472 157.495 C 206.967 157.591,207.684 157.587,208.064 157.487 C 208.445 157.388,208.040 157.310,207.164 157.314 C 206.289 157.319,205.977 157.400,206.472 157.495 M357.956 163.383 C 357.957 165.572,358.024 166.417,358.105 165.260 C 358.185 164.104,358.185 162.313,358.103 161.280 C 358.021 160.248,357.955 161.194,357.956 163.383 M122.687 163.383 C 122.692 164.259,122.773 164.570,122.869 164.075 C 122.964 163.580,122.960 162.863,122.861 162.483 C 122.761 162.102,122.683 162.507,122.687 163.383 M169.552 162.985 C 169.005 163.298,168.736 163.554,168.955 163.554 C 169.174 163.554,169.801 163.298,170.348 162.985 C 170.896 162.672,171.164 162.416,170.945 162.416 C 170.726 162.416,170.100 162.672,169.552 162.985 M228.856 162.974 C 228.856 163.083,229.930 163.715,231.244 164.378 C 232.557 165.041,233.632 165.494,233.632 165.385 C 233.632 165.275,232.557 164.643,231.244 163.980 C 229.930 163.317,228.856 162.864,228.856 162.974 M273.569 166.567 C 273.571 168.318,273.641 168.985,273.725 168.049 C 273.809 167.113,273.808 165.680,273.722 164.865 C 273.637 164.050,273.568 164.816,273.569 166.567 M165.970 164.577 C 165.423 164.890,165.154 165.146,165.373 165.146 C 165.592 165.146,166.219 164.890,166.766 164.577 C 167.313 164.264,167.582 164.008,167.363 164.008 C 167.144 164.008,166.517 164.264,165.970 164.577 M123.108 167.761 C 123.111 169.075,123.185 169.564,123.274 168.849 C 123.362 168.133,123.360 167.059,123.269 166.461 C 123.179 165.862,123.106 166.448,123.108 167.761 M158.370 168.797 C 156.028 170.297,154.135 171.762,155.622 170.925 C 156.532 170.412,160.920 167.571,161.136 167.355 C 161.700 166.791,160.634 167.347,158.370 168.797 M357.513 170.149 C 357.518 171.025,357.599 171.336,357.694 170.841 C 357.790 170.346,357.786 169.630,357.686 169.249 C 357.587 168.869,357.509 169.274,357.513 170.149 M144.202 180.796 C 139.700 185.229,134.527 190.557,132.705 192.637 C 130.884 194.716,127.586 198.478,125.376 200.995 C 115.797 211.909,99.129 236.545,99.122 239.801 C 99.122 240.020,100.067 238.408,101.222 236.219 C 110.028 219.536,124.273 201.266,143.347 182.189 C 148.546 176.990,152.706 172.736,152.593 172.736 C 152.480 172.736,148.704 176.363,144.202 180.796 M273.563 176.517 C 273.565 178.050,273.637 178.628,273.723 177.802 C 273.809 176.976,273.808 175.723,273.720 175.016 C 273.632 174.309,273.562 174.985,273.563 176.517 M123.085 177.313 C 123.090 178.189,123.171 178.500,123.267 178.005 C 123.362 177.510,123.358 176.794,123.259 176.413 C 123.159 176.033,123.081 176.438,123.085 177.313 M252.338 179.303 C 253.749 180.726,254.992 181.891,255.101 181.891 C 255.211 181.891,254.147 180.726,252.736 179.303 C 251.326 177.881,250.083 176.716,249.973 176.716 C 249.864 176.716,250.928 177.881,252.338 179.303 M274.040 181.397 C 274.602 186.804,280.394 199.145,283.630 201.831 C 283.990 202.129,283.270 200.885,282.032 199.066 C 278.174 193.401,275.814 188.214,274.578 182.687 C 274.003 180.113,273.874 179.804,274.040 181.397 M257.313 184.279 C 258.168 185.154,258.958 185.871,259.067 185.871 C 259.176 185.871,258.566 185.154,257.711 184.279 C 256.856 183.403,256.067 182.687,255.958 182.687 C 255.848 182.687,256.458 183.403,257.313 184.279 M351.347 190.362 C 350.550 191.942,349.424 194.040,348.845 195.025 C 348.162 196.189,348.077 196.468,348.603 195.821 C 349.590 194.607,353.179 187.872,352.957 187.650 C 352.869 187.562,352.145 188.783,351.347 190.362 M44.179 188.009 C 44.179 188.439,45.760 191.443,45.986 191.443 C 46.096 191.443,45.801 190.682,45.332 189.751 C 44.410 187.922,44.179 187.573,44.179 188.009 M115.798 198.706 C 115.092 199.856,113.330 202.065,111.884 203.615 C 109.906 205.735,110.044 205.630,112.438 203.191 C 114.189 201.407,116.036 199.198,116.543 198.282 C 117.850 195.919,117.330 196.215,115.798 198.706 M346.619 198.308 C 346.125 199.020,344.102 201.303,342.123 203.383 L 338.525 207.164 341.991 203.798 C 345.047 200.830,348.265 197.015,347.714 197.015 C 347.605 197.015,347.113 197.597,346.619 198.308 M270.249 199.005 C 270.942 199.881,271.599 200.597,271.709 200.597 C 271.818 200.597,271.340 199.881,270.647 199.005 C 269.953 198.129,269.296 197.413,269.187 197.413 C 269.077 197.413,269.555 198.129,270.249 199.005 M52.006 200.241 C 55.577 204.787,60.446 208.713,65.957 211.491 C 69.651 213.353,68.772 212.588,64.531 210.251 C 59.722 207.600,55.540 204.171,52.581 200.452 C 51.425 199.000,50.393 197.811,50.288 197.811 C 50.182 197.811,50.956 198.905,52.006 200.241 M284.776 203.348 C 289.574 209.075,302.858 215.836,309.031 215.693 C 309.701 215.678,308.567 215.312,306.511 214.880 C 299.135 213.332,292.756 210.130,287.073 205.122 C 285.372 203.624,284.338 202.825,284.776 203.348 M277.638 208.458 C 278.674 209.826,279.596 210.945,279.688 210.945 C 279.934 210.945,278.453 208.962,277.012 207.363 C 276.321 206.597,276.603 207.090,277.638 208.458 M335.220 209.172 C 334.737 209.510,332.862 210.581,331.052 211.553 C 329.242 212.525,327.919 213.323,328.112 213.327 C 328.606 213.336,334.331 210.255,335.526 209.336 C 336.711 208.426,336.470 208.297,335.220 209.172 M98.109 212.995 C 97.015 213.442,94.866 214.139,93.333 214.544 C 91.801 214.948,90.880 215.289,91.286 215.301 C 92.983 215.352,100.299 212.932,100.299 212.320 C 100.299 212.089,100.427 212.049,98.109 212.995 M69.652 213.101 C 70.199 213.393,71.095 213.744,71.642 213.880 C 72.189 214.016,71.920 213.783,71.045 213.362 C 69.244 212.496,68.127 212.286,69.652 213.101 M282.189 214.527 C 282.657 215.184,283.129 215.721,283.238 215.721 C 283.348 215.721,283.055 215.184,282.587 214.527 C 282.119 213.871,281.647 213.333,281.538 213.333 C 281.428 213.333,281.721 213.871,282.189 214.527 M78.308 215.604 C 78.801 215.699,79.607 215.699,80.100 215.604 C 80.592 215.509,80.189 215.432,79.204 215.432 C 78.219 215.432,77.816 215.509,78.308 215.604 M87.463 215.604 C 87.955 215.699,88.761 215.699,89.254 215.604 C 89.746 215.509,89.343 215.432,88.358 215.432 C 87.373 215.432,86.970 215.509,87.463 215.604 M82.493 216.007 C 83.098 216.098,83.994 216.096,84.483 216.002 C 84.973 215.907,84.478 215.832,83.383 215.835 C 82.289 215.838,81.888 215.916,82.493 216.007 M312.352 216.015 C 313.508 216.096,315.299 216.095,316.332 216.013 C 317.364 215.932,316.418 215.866,314.229 215.867 C 312.040 215.868,311.195 215.935,312.352 216.015 M286.965 220.896 C 287.433 221.552,287.905 222.090,288.014 222.090 C 288.124 222.090,287.831 221.552,287.363 220.896 C 286.896 220.239,286.423 219.701,286.314 219.701 C 286.205 219.701,286.498 220.239,286.965 220.896 M288.506 223.085 C 288.721 223.522,289.189 224.239,289.545 224.677 L 290.193 225.473 289.802 224.677 C 289.587 224.239,289.120 223.522,288.763 223.085 L 288.115 222.289 288.506 223.085 M292.537 230.050 C 292.984 230.925,293.439 231.642,293.549 231.642 C 293.658 231.642,293.382 230.925,292.935 230.050 C 292.489 229.174,292.034 228.458,291.924 228.458 C 291.815 228.458,292.091 229.174,292.537 230.050 M188.150 238.297 C 188.857 238.385,190.111 238.387,190.936 238.300 C 191.762 238.214,191.184 238.142,189.652 238.141 C 188.119 238.139,187.444 238.209,188.150 238.297 M201.692 238.291 C 202.184 238.386,202.990 238.386,203.483 238.291 C 203.975 238.196,203.572 238.118,202.587 238.118 C 201.602 238.118,201.199 238.196,201.692 238.291 M98.353 241.636 C 98.107 242.340,97.977 242.985,98.062 243.070 C 98.147 243.155,98.417 242.649,98.662 241.946 C 98.907 241.242,99.038 240.597,98.953 240.512 C 98.868 240.427,98.598 240.933,98.353 241.636 M96.316 248.480 C 95.837 250.550,95.532 252.579,95.637 252.988 C 95.782 253.551,95.840 253.490,95.877 252.736 C 95.904 252.189,96.286 250.237,96.727 248.399 C 97.168 246.561,97.451 244.980,97.357 244.886 C 97.263 244.792,96.794 246.409,96.316 248.480 M300.590 256.716 C 300.590 257.483,300.672 257.796,300.772 257.413 C 300.872 257.030,300.872 256.403,300.772 256.020 C 300.672 255.637,300.590 255.950,300.590 256.716 M94.819 257.910 C 94.819 258.677,94.901 258.990,95.001 258.607 C 95.101 258.224,95.101 257.597,95.001 257.214 C 94.901 256.831,94.819 257.144,94.819 257.910 M108.382 260.498 C 108.384 261.811,108.459 262.300,108.547 261.585 C 108.636 260.870,108.634 259.795,108.543 259.197 C 108.452 258.599,108.380 259.184,108.382 260.498 M301.031 263.881 C 301.034 267.055,300.896 271.174,300.723 273.035 C 300.550 274.896,300.506 276.325,300.626 276.212 C 301.106 275.757,301.661 264.326,301.350 261.294 C 301.050 258.368,301.024 258.578,301.031 263.881 M94.546 269.254 C 94.780 283.659,98.144 292.933,107.923 306.122 C 116.602 317.827,133.460 327.850,146.281 328.929 C 149.012 329.158,148.437 328.973,143.682 328.093 C 130.795 325.709,115.506 315.966,107.894 305.287 C 98.092 291.537,95.309 283.841,94.716 268.856 L 94.418 261.294 94.546 269.254 M177.999 268.082 C 177.368 268.524,177.132 269.067,177.174 269.973 C 177.228 271.116,177.250 271.138,177.396 270.191 C 177.670 268.404,178.626 267.910,182.101 267.760 L 185.274 267.623 182.079 267.543 C 179.728 267.484,178.650 267.627,177.999 268.082 M218.378 271.495 C 217.716 274.829,214.676 277.380,211.283 277.447 C 209.726 277.478,209.663 277.515,210.651 277.812 C 213.815 278.764,219.483 273.865,218.816 270.756 C 218.726 270.338,218.547 270.640,218.378 271.495 M179.057 274.871 C 179.573 275.915,182.146 278.209,182.800 278.207 C 183.066 278.207,182.730 277.869,182.054 277.456 C 181.377 277.044,180.333 276.104,179.733 275.368 C 179.133 274.632,178.829 274.408,179.057 274.871 M184.782 278.495 C 185.387 278.586,186.282 278.584,186.772 278.489 C 187.261 278.395,186.766 278.320,185.672 278.323 C 184.577 278.326,184.177 278.403,184.782 278.495 M294.173 296.013 C 293.453 297.472,291.814 300.337,290.530 302.380 C 289.247 304.423,288.360 305.993,288.560 305.869 C 289.478 305.302,296.005 293.882,295.628 293.505 C 295.547 293.425,294.893 294.553,294.173 296.013 M282.388 312.348 C 273.919 320.585,264.004 326.106,253.535 328.416 C 250.997 328.976,250.674 329.108,252.244 328.945 C 261.429 327.990,274.782 320.636,283.573 311.689 C 287.937 307.248,287.226 307.643,282.388 312.348 M149.950 329.442 C 150.662 329.530,151.826 329.530,152.537 329.442 C 153.249 329.354,152.667 329.282,151.244 329.282 C 149.821 329.282,149.239 329.354,149.950 329.442 M221.891 329.552 L 200.796 329.762 221.891 329.814 C 233.493 329.843,244.597 329.734,246.567 329.573 L 250.149 329.280 246.567 329.312 C 244.597 329.329,233.493 329.437,221.891 329.552 M157.330 329.848 C 158.817 329.925,161.145 329.924,162.504 329.846 C 163.863 329.769,162.647 329.706,159.801 329.707 C 156.955 329.708,155.843 329.771,157.330 329.848 M173.234 330.248 C 177.776 330.312,185.209 330.312,189.751 330.248 C 194.294 330.184,190.577 330.132,181.493 330.132 C 172.408 330.132,168.692 330.184,173.234 330.248 " stroke="none" fill="#f99d77" fill-rule="evenodd"></path></g></svg>